<svg xmlns="http://www.w3.org/2000/svg" version="1.0" viewBox="0 0 390 117"><g fill="#FFF" stroke-width="0"><path d="M39.1 35.8v23.7L44 46c6.4-17.5 7.5-19.4 11.9-21.6 2-1.1 3.7-2.1 3.8-2.4.2-.3 9.8-.4 21.4-.3 15.3.2 21.8.6 23.8 1.6 2.2 1.1 3.2 1.1 6.1-.1 2.4-1 5.5-1.2 10-.8 3.6.3 7.2.5 8 .4s14.1-.2 29.5-.4 30.9-.3 34.5-.4c7.2-.2 10.3.7 13.9 3.9l2.4 2.1 2.2-2c3.4-3.2 7.3-3.8 24.7-3.9 21.8 0 22.8.2 25.8 4.7 1.3 2 2.5 3.9 2.7 4.1.1.2 1.5-1.1 3-2.9s4.2-3.9 6-4.6c3.5-1.5 15.5-1.8 18.8-.5 1.1.5 3.1.4 4.5-.1 3.3-1.2 34.4-1 39.2.3 10 2.6 14.3 11.6 11.5 23.7-.9 3.7-2.1 9.3-2.6 12.4-1.2 6.8-2.9 10.4-6.8 13.9-3.2 3-12.4 7.9-14.9 7.9-1.3 0-1.4.3-.5 1.4 1 1.1 1 2 .1 3.6-1 2-1.7 2.1-5.8 1.5-5.7-.8-6-1.1-4.4-3.5 1.2-1.9.9-2-5.2-2-4.4 0-6.7.5-7.6 1.5s-.9 1.5-.1 1.5c.6 0 1.1.7 1.1 1.5 0 1.1-1.2 1.5-5 1.5-2.7 0-5-.3-5-.7s1-1.7 2.2-3l2.1-2.3h-4.9c-2.7 0-5.9-.3-7.1-.6-1.6-.5-2.3-.2-2.3.8 0 2.4-3.9 6.8-6 6.8-3 0-5.3-3-4.7-6l.6-2.6-5.2.9c-6.9 1.2-8.3 2-7.9 4.6.3 1.9-.2 2.1-4.2 2.1-5.2 0-6.1-1.7-2.3-4.3 2-1.4 1.4-1.5-8.6-1.6-6.6-.1-12.4-.7-15-1.6-5.6-2-5.7-1.9-5.7 1.3 0 4.2-2.8 6.2-8.4 6.2h-4.8l.7-3c.6-2.7.4-3-2-3-1.4 0-3.9-.7-5.5-1.5-1.7-.9-3-1.1-3-.5 0 .5-.6 1-1.4 1-1.5 0-2.6 2.1-2.6 5.1 0 1.4-.7 1.9-2.5 1.9-2.4 0-2.5-.2-1.9-3.7l.7-3.6-3.3.6c-1.8.4-5.3.7-7.7.7-3.6 0-4.4.3-3.9 1.5.7 2-2.8 5.5-5.6 5.5-3.6 0-5.2-1.5-4-3.5 1.1-2.1.5-4.9-2-9-1-1.7-1.8-4.8-1.8-7l-.1-4-1.5 3.5c-.8 1.9-2.3 4.4-3.3 5.5-1.8 2-3.1 5.8-3.4 10.5-.2 2.3-.7 2.5-5.1 2.8l-4.9.3.6-2.9.6-3-7.1-.4c-6.4-.3-7.3-.7-9.9-3.6-2.3-2.6-2.9-4.2-2.9-8 0-2.6.4-6.2.9-8 1.6-5.4-.5-3.5-2.7 2.5-3.2 8.6-5.6 12-10.4 14.4-5.9 3-16.3 3.7-20.7 1.5C89.7 78.8 87 74 87 69.5c0-2.4-.3-2.5-5.7-2.5-6.7 0-7.5.4-9.7 4.7-4.5 8.8-19.5 13.2-28.9 8.4L39 78.2V105h312V12H39z"/><path d="M128.6 52.9c-.4.7-.5 1.5-.2 1.8.9.9 1.9-.4 1.4-1.8-.4-1.1-.6-1.1-1.2 0m-1.6 4.2c0 .5.5.7 1 .4.6-.3 1-.8 1-1.1 0-.2-.4-.4-1-.4-.5 0-1 .5-1 1.1m88.1 25.3c-.8.9-1.1 1.9-.7 2.3.9.9 2.9-1.3 2.4-2.7-.2-.8-.8-.7-1.7.4m60 .2c0 1.1.3 1.4.6.6.3-.7.2-1.6-.1-1.9-.3-.4-.6.2-.5 1.3"/></g><g fill="#BFBFBF" stroke-width="0"><path d="M56.5 24c-2.2 1.1-4.6 2.9-5.3 4s-3.7 8.8-6.7 17.1c-5.1 14.1-5.5 15.8-5.5 24 0 8.5.1 8.9 2.6 10.6 3.4 2.2 13.1 2.9 18 1.3 5.2-1.7 10-5.4 12-9.3 2.2-4.3 3-4.7 9.7-4.7 5.4 0 5.7.1 5.7 2.5 0 4.5 2.7 9.3 6.1 11.1 4.4 2.2 14.8 1.5 20.7-1.5 5.7-2.9 7.1-5.3 14.2-24.5 2-5.3 2.1-1.9.2 4-1.1 3.3-2 8.2-2.1 11.1-.1 4.2.3 5.7 2.5 8.3 1.8 2.1 3.3 3 4.6 2.7 1-.3 1.6-.1 1.2.4-.3.5 2.2.9 5.6.9 5.3 0 6.3-.3 6.7-2 .4-1.6 1.4-2 4.5-2 3.2 0 4.5-.6 6.2-2.7 1.1-1.5 2-3.1 1.9-3.5-.2-.5.1-.8.6-.8s1.4-1.2 1.9-2.8c1-2.6 1-2.6 1.1 1.3.1 2.2 1 5.5 2.1 7.3s2.1 4.4 2.2 5.7c.1 1.4.6 2.5 1 2.5s.5-1.3.2-2.9c-.5-2.3-.2-3.2 1.6-4.1 2.9-1.5 7.1-.5 6.3 1.5-.3 1.1-1.2 1.3-2.7.9-1.7-.5-1.9-.4-.9.7.8.8 3.4 1.2 7 1 7.2-.2 9.3-.8 9.3-2.7 0-2.2 8.2-1.8 12.5.6 4.8 2.7 9.5 2.7 9.5 0 0-1.7.7-2 4.5-2 3.2 0 4.7.5 5.2 1.6.4 1.1.8 1.2 1.3.4.5-.9 1.9-.8 5.2.4 4.5 1.5 26.2 2.5 27.5 1.2.4-.3-.3-.6-1.5-.6-3.1 0-3.7-1.8-.9-3.1 2.9-1.3 6.7.2 6.7 2.8 0 1.3.8 1.5 5.3.9 2.8-.4 5.8-.8 6.5-.8.6-.1 1.2-.5 1.2-1s1.1-1.3 2.5-2c3.1-1.4 5.4.3 5.6 4.1.1 1.4.3 1.9.6 1 .3-1.3 1.7-1.5 8.3-1.1 5.2.3 8 .1 8-.6 0-.5-.9-.8-2-.5-2.9.8-2.5-1.5.5-2.9 2.7-1.2 5.5.2 5.5 2.8 0 1.1 1.7 1.4 6.8 1.4 5.6 0 7.2-.4 8.7-2 1-1.1 2.7-2 3.8-2 1.9 0 2 .1.2 2-1.6 1.8-1.6 2-.2 2 .9 0 2.1.8 2.6 1.7.6 1 1.1 1.3 1.1.8 0-.6-.5-1.6-1.2-2.3-.9-.9-.8-1.2.5-1.2 2.8 0 13-5.6 15.9-8.7 3.2-3.5 5.3-8.3 6.2-14.8.5-2.8 1.5-7.7 2.3-11 3-11.6-1.6-20.8-11.8-23.5-3.2-.9-29.8-1-41.4-.1-.5 0-4.4-.2-8.7-.5-9.4-.7-13.6.5-17.9 5.4-2.2 2.5-3.4 3.2-3.7 2.3-.2-.7-1.7-2.8-3.2-4.5l-2.8-3.1-17.4-.2c-21.1-.3-25 .1-28.7 3.2l-2.8 2.5-2.9-2.5c-1.6-1.4-4.2-2.7-5.9-3-2.5-.4-66.9-.1-71.5.4-.8 0-4.2-.2-7.5-.5-3.9-.4-7.4-.1-10 .8-3.3 1.1-4.5 1.1-6.5.1-1.8-.9-8.5-1.3-23.5-1.3-18.9 0-21.4.2-25 2m44.7 10-1.6 5H85.9c-14 0-14.9.3-14.9 4.1 0 .5 5.2.9 11.5.9 12.7 0 12.8 0 10.1 6.5l-1.5 3.4-12.2.3-12.3.3-2.2 5.5c-2.7 6.8-5.9 9-13.3 9-3.8 0-5.2-.3-4.9-1.3.3-.6 3.5-9.6 7.3-20L60.3 29h42.5zm23.3-3.3c-.3 1-3.3 9.3-6.6 18.4-6.8 18.7-7.8 19.9-16.8 19.9-2.8 0-5.1-.3-5.1-.6 0-.7 9.1-26.2 11.5-32 1.9-4.9 6-7.2 12.9-7.3 4.2-.1 4.7.1 4.1 1.6m55.5-1.4c0 .2-.7 2.4-1.6 5l-1.6 4.7h-16.5l-4.9 13.2c-5.7 15.3-7.5 17.1-16.2 16.6l-4.9-.3 4.8-13c2.7-7.2 4.8-13.8 4.9-14.8 0-1.5-1-1.7-7.5-1.7-4.1 0-7.5-.1-7.5-.3s.7-2.4 1.6-5l1.6-4.7h23.9c13.1 0 23.9.1 23.9.3m18.4 6.9c-1.3 3.9-2.4 7.5-2.4 8s3.9.7 8.7.6l8.7-.3 2.7-7.5 2.7-7.5 7.6-.3 7.6-.3-5.1 14.3c-2.8 7.9-5.7 15.9-6.3 17.8-1.8 4.9-6.7 8-12.7 8-2.7 0-4.9-.4-4.9-.8 0-.5.9-3.5 2-6.7s2-6.2 2-6.7c0-.4-2.8-.8-6.3-.8-3.6 0-6.8-.5-7.5-1.2-1.7-1.7-2.5-.5-5.7 8.4l-2.8 7.8h-7.3c-4.1 0-7.4-.3-7.4-.6 0-.6 8-23.2 12-33.7l2.1-5.7h14.8zm52.6 6.9c-2.7 7.8-4.7 14.5-4.4 15 .6 1 15.3 1.2 17.7.3.8-.3 3.9-7 6.8-15l5.2-14.4h7.4c4 0 7.3.2 7.3.4 0 2.2-10.5 29.5-11.8 30.8-.9.9-4.6 3.3-8 5.2l-6.4 3.6h-16.7c-17.6 0-19.1-.4-19.1-4.6 0-2 3.8-13.4 10-29.7l2.1-5.7H256zm86-11.6c3 2.7 2.3 9.5-1.3 13.3-2.3 2.4-2.4 2.9-1 4.1 1.9 1.7 1.3 8-1.1 11.6-.9 1.4-4.3 3.8-7.6 5.5l-5.9 3h-18.2c-14.1 0-18-.3-17.7-1.3.3-.6 3.6-9.7 7.3-20l6.8-18.8 18.3.3c16.5.3 18.4.5 20.4 2.3"/><path d="M309 41.6c-.6 1.4-1 2.7-1 3 0 .2 2.7.4 5.9.4 6.3 0 9.5-1.7 8.5-4.5-.5-1.1-2.2-1.5-6.5-1.5-5.5 0-6 .2-6.9 2.6m-5 14.3c-.5 1.1-1 2.2-1 2.5s3.4.6 7.5.6c6.3 0 7.6-.3 8.5-1.9.5-1.1 1-2.2 1-2.5s-3.4-.6-7.5-.6c-6.3 0-7.6.3-8.5 1.9M154.6 80.5c-.9 2.6-.7 3.2.5 1.2.6-1 .9-2.1.6-2.3-.2-.3-.7.2-1.1 1.1m59.4 1.6c0 .5.5.7 1 .4.6-.3 1-.8 1-1.1 0-.2-.4-.4-1-.4-.5 0-1 .5-1 1.1m2.7.8c-.4 1.7-.3 2.1.5 1.3.5-.5.8-1.6.6-2.3-.3-.8-.7-.3-1.1 1m53.5 1.1c0 1.4.2 1.9.5 1.2.2-.6.2-1.8 0-2.5-.3-.6-.5-.1-.5 1.3m-118.7.7c1.1.3 2.4 1 2.8 1.7.6.7.7.6.4-.4-.2-.8-1.4-1.6-2.8-1.7-1.9-.1-2-.1-.4.4m160.6.4c-.1 1.1.9 1.8 2.8 2.1 1.7.2 2.8.1 2.5-.4-.3-.4-1.4-.8-2.4-.8s-2.1-.6-2.3-1.3c-.4-.7-.6-.6-.6.4m-142.3 3.6c.6.2 1.8.2 2.5 0 .6-.3.1-.5-1.3-.5s-1.9.2-1.2.5m104 0c.7.3 1.6.2 1.9-.1.4-.3-.2-.6-1.3-.5-1.1 0-1.4.3-.6.6"/></g><path fill="#404080" d="M73.8 44.7c.7.3 1.6.2 1.9-.1.4-.3-.2-.6-1.3-.5-1.1 0-1.4.3-.6.6"/><path d="M60.5 30.2C56.6 40.5 47 67.6 47 68.2c0 1.5 7.1.8 10.9-1.1 3.2-1.7 4.2-3 6-8l2.2-6 12.6-.3 12.6-.3 1.3-3.7 1.3-3.7-12.4-.3-12.3-.3 1.3-3.3 1.4-3.2h13.6c14.9 0 13.7.5 15.9-6.8l.7-2.2H81.5c-15.5 0-20.7.3-21 1.2m53 .6c-4 1.8-4 1.9-10.6 19.8l-6.6 17.9 3.5.3c2 .2 5.3-.4 7.4-1.4 4.1-1.8 3.5-.7 12.4-25C122 35.7 124 30 124 29.6c0-1.3-6.6-.5-10.5 1.2m18.6.4c-2.7 7.2-3 6.8 5.2 6.8 4 0 7.6.2 7.9.5s-1.9 7.2-4.8 15.2c-3 8.1-5.4 14.9-5.4 15.1 0 .3 2.3.2 5.1 0 8-.8 9.5-2.6 14.9-17.3l4.7-13 8.2-.3 8.2-.3 1.5-3.4c.8-1.9 1.4-3.9 1.4-4.5s-7.9-1-23-1c-23 0-23.1 0-23.9 2.2m53.9 0c-.5 1.3-3.8 10.2-7.3 19.8l-6.4 17.5 6.5.3c7.3.3 7.3.3 9.8-7.3 1-2.8 2.3-6.5 3.1-8.4 1.3-3.1 1.5-3.2 3.2-1.7 1.2 1.1 3.7 1.6 8.4 1.6 7.8 0 7.8-.1 4.2 9.5l-2.6 6.8 5.1-.5c8.5-.8 9.7-2.4 16.7-21.4 3.4-9.3 6.2-17.3 6.3-17.7 0-.4-3-.7-6.7-.5l-6.7.3-2.9 7.7-3 7.8h-9.3c-5.2 0-9.4-.1-9.4-.3s1.1-3.7 2.5-7.7 2.5-7.5 2.5-7.7-2.9-.3-6.5-.3c-5.8 0-6.6.2-7.5 2.2m55.5-1.2c-.3.5-3.3 8.4-6.5 17.5-6.2 17.1-6.4 19.4-2.4 20.9.8.3 8.1.6 16.1.6h14.6l7.4-4.1c4-2.2 8-5.1 8.8-6.2 1.4-2.2 10.5-27 10.5-28.8 0-.5-2.9-.9-6.5-.9-5.9 0-6.6.2-7.4 2.2-7.6 21.2-9.6 26.1-10.8 27.4-1.9 1.9-17.6 2-19.1.1-.8-.9.1-4.5 3.2-13.2 6.7-18.5 6.8-16.5-.8-16.5-3.6 0-6.8.4-7.1 1m57 .1C294.7 40.2 285 67.6 285 68.2c0 .4 7.5.8 16.8.8 16.4 0 16.8-.1 22.9-2.9 6.3-3 8.8-5.6 10.1-10.7 1.1-3.9.5-6.2-1.9-6.9-1.7-.6-1.6-.9 1.6-3.9 2.9-2.8 3.5-4 3.5-7.4 0-6.8-2.1-7.6-22.2-8-13.5-.4-16.9-.2-17.3.9m24.4 9.3c1.9 2.3-.3 5.3-4.5 6.1-3.5.6-11.4-.2-11.4-1.1 0-.3.7-1.8 1.5-3.4 1.5-2.8 1.9-3 7.4-3 3.9 0 6.3.5 7 1.4m-2.2 15.3c.2.6-.5 2.1-1.6 3.2-1.8 1.8-3.4 2.1-9.6 2.1-4.1 0-7.5-.4-7.5-.9s.4-2.1 1-3.6c1-2.5 1.2-2.6 9.2-2.3 5.2.2 8.3.7 8.5 1.5"/><path fill="gray" d="M81.3 44.7c2.6.2 6.7.2 9 0s.2-.3-4.8-.3c-4.9 0-6.8.1-4.2.3m111.3 6.9c-.3.9-.2 1.2.5.9.5-.4 1.8-.1 2.7.6 1.3 1.1 1.2.8-.2-.9-2.3-2.6-2.2-2.6-3-.6M304 53.7c0 .5 2.4.7 5.2.5 9.5-.5 10.4-.9 2.6-1.1-4.3 0-7.8.2-7.8.6m-243.1 12c-1.3 1.6-1.2 1.7.4.4.9-.7 1.7-1.5 1.7-1.7 0-.8-.8-.3-2.1 1.3"/><path fill="#404040" d="M328.8 29.7c.7.3 1.6.2 1.9-.1.4-.3-.2-.6-1.3-.5-1.1 0-1.4.3-.6.6M97.5 38c-1.6.7-1.7.9-.3.9.9.1 2-.4 2.3-.9.7-1.1.7-1.1-2 0m31.5.2c0 .4 1.4.8 3 .8 1.7 0 3-.2 3-.4s-1.3-.6-3-.8c-1.6-.3-3-.1-3 .4m205.9 6.5c-1.3 1.6-1.2 1.7.4.4s2.1-2.1 1.3-2.1c-.2 0-1 .8-1.7 1.7m-264.1 0c.7.3 1.6.2 1.9-.1.4-.3-.2-.6-1.3-.5-1.1 0-1.4.3-.6.6m7.7 8.3-13 .6 12.7.2c7.6.1 12.9-.2 13.3-.8.3-.6.5-.9.3-.8s-6.1.5-13.3.8m121.2.7c1.8.2 5 .2 7 0 2.1-.2.7-.4-3.2-.4-3.8 0-5.5.2-3.8.4m51.6 6c2.6.2 6.7.2 9 0s.2-.3-4.8-.3c-4.9 0-6.8.1-4.2.3m54.5 0c2.3.2 5.9.2 8 0 2-.2.1-.4-4.3-.4s-6.1.2-3.7.4"/><path fill="#000040" d="M338.1 36.6c0 1.1.3 1.4.6.6.3-.7.2-1.6-.1-1.9-.3-.4-.6.2-.5 1.3M77.3 38.7c3.1.2 8.3.2 11.5 0 3.1-.2.5-.3-5.8-.3s-8.9.1-5.7.3m60.2-.2c2.3.8 8.3 1 7.9.3-.3-.4-2.4-.8-4.7-.7-2.3 0-3.7.2-3.2.4m24.8.2c1.5.2 3.9.2 5.5 0 1.5-.2.2-.4-2.8-.4s-4.3.2-2.7.4m150.5 0c1.7.2 4.7.2 6.5 0 1.7-.2.3-.4-3.3-.4s-5 .2-3.2.4m0 7c1.2.2 3 .2 4 0 .9-.3-.1-.5-2.3-.4-2.2 0-3 .2-1.7.4"/><path fill="#400040" d="M170.8 38.7c.6.2 1.8.2 2.5 0 .6-.3.1-.5-1.3-.5s-1.9.2-1.2.5"/><path fill="#BFBF80" d="M171.8 77.7c.6.2 1.8.2 2.5 0 .6-.3.1-.5-1.3-.5s-1.9.2-1.2.5m82 0c.7.3 1.6.2 1.9-.1.4-.3-.2-.6-1.3-.5-1.1 0-1.4.3-.6.6m22 0c.7.3 1.6.2 1.9-.1.4-.3-.2-.6-1.3-.5-1.1 0-1.4.3-.6.6m21 0c.7.3 1.6.2 1.9-.1.4-.3-.2-.6-1.3-.5-1.1 0-1.4.3-.6.6m-38.7 2.9c0 1.1.3 1.4.6.6.3-.7.2-1.6-.1-1.9-.3-.4-.6.2-.5 1.3M150 81c0 .5.9 1 1.9 1 1.1 0 2.3-.5 2.6-1 .4-.6-.5-1-1.9-1s-2.6.4-2.6 1m39.8-.3c.7.3 1.6.2 1.9-.1.4-.3-.2-.6-1.3-.5-1.1 0-1.4.3-.6.6M170.5 85c-.3.5-.1 1 .4 1 .6 0 1.1-.5 1.1-1 0-.6-.2-1-.4-1-.3 0-.8.4-1.1 1"/><path fill="#BF8040" d="M147 79.2c0 .7-.3 3-.6 5l-.7 3.8h4.2c2.2 0 4.1-.5 4.1-1 0-.6-.9-1-1.9-1-1.1 0-2.3-.5-2.6-1-.4-.6.5-1 1.9-1s2.6-.5 2.6-1c0-.6-.9-1-2-1s-2-.5-2-1c0-.6 1.1-1 2.5-1s2.5-.5 2.5-1c0-.6-1.8-1-4-1-2.5 0-4 .5-4 1.2m21.7-.5c-1.4 1.4-.6 4.5 1.3 5 1.1.3 2 1 2 1.5 0 .6-1.1.7-2.5.4-1.8-.5-2.5-.2-2.5.9 0 1 1 1.5 3.3 1.5 5.8 0 7.8-4.2 3-6.2l-2.8-1.2 2.8-.4c1.5-.2 2.7-.8 2.7-1.3 0-1-6.3-1.3-7.3-.2m20.8.3c-.3.5.1 1 1 1 1.4 0 1.6.7 1 4-.5 3.2-.4 4 .8 4 1 0 1.8-1.4 2.2-4 .4-2.4 1.2-4 2-4s1.7-.5 2-1c.4-.6-1.1-1-3.9-1-2.5 0-4.8.4-5.1 1m22.2-.3c-.3.5-.8 2.7-1.2 5l-.7 4.3h3.4c6.1 0 10.1-5.3 6.6-8.8-1.3-1.3-7.4-1.7-8.1-.5m5.8 3.9c0 1-.8 2-1.7 2.2-1.8.3-2.6-2.7-1.1-4.2 1.2-1.1 2.8 0 2.8 2m34.2-4c-1.1 1.1.2 2.4 1.8 1.7 2.3-.8 1.8 1.3-.8 3.4-4.2 3.3-4.2 4.3.2 4.3 3 0 4.1-.4 4.1-1.5 0-.8-.5-1.5-1.2-1.5-.6 0-.4-.6.6-1.3 2.5-1.9 1.7-5.1-1.4-5.5-1.4-.2-2.9 0-3.3.4m21 1.2c-2 2.2-2.2 5.3-.5 7 3.1 3.1 8.2-.6 7.6-5.5-.4-3.5-4.5-4.4-7.1-1.5m4.3 2.1c0 2-1.7 3.7-2.7 2.8-.7-.8.7-4.7 1.8-4.7.5 0 .9.9.9 1.9m16.5-3c-.7 1.2 1.2 2.4 2.5 1.6 2.1-1.3.9 1.8-1.5 3.7C291 87 291.4 88 296 88c2.9 0 4-.4 4-1.5 0-.8-.5-1.5-1.2-1.5-.6 0-.4-.8.7-2 2.4-2.6 1.3-5-2.4-5-1.6 0-3.2.4-3.6.9m22.1 2.4c-3.2 4.2-3.2 4.7-.1 4.7 1.4 0 2.5.4 2.5 1 0 1.5 1.9 1.2 3.6-.4 1.6-1.6.9-4.6-1.1-4.6-.7 0-1.6.6-1.8 1.2-.4.8-.6.9-.6.2-.1-.6.6-1.7 1.4-2.4 1.9-1.6 1.9-3 .1-3-.8 0-2.6 1.5-4 3.3"/><path fill="#BF8080" d="M250.5 78.9c-.3.5-.2 1.2.3 1.5s.9-.1.9-.9c0-1.7-.3-1.9-1.2-.6m-99.7 6.8c.6.2 1.8.2 2.5 0 .6-.3.1-.5-1.3-.5s-1.9.2-1.2.5"/></svg>